<svg width="2500" height="2115" fill="none" xmlns="http://www.w3.org/2000/svg"><g clip-path="url(#Group 1__a)"><path d="M2181.21 234.533C1889.76 83.085 1566.06 0 1214.92 0 867.698 0 540.08 83.645 251.023 231.893L407.552 534.99H549.16L420.033 291.697a1981.582 1981.582 0 0 1 794.887-165.25 1981.827 1981.827 0 0 1 797.24 166.25L1885.68 534.99h136.64l158.89-300.457ZM805.015 1310.07h144.088l265.817 529.15 270.77-529.15h139.13l-409.9 797.49-409.905-797.49Zm1135.185-18.52h31.32c13.6 0 28.72 5.12 28.72 22.56 0 19.77-18.72 21.57-35.92 21.57h-24.12v8.48h29.52l34.12 52.32h10.8l-33.88-52.08c16.16-2.56 29.24-11.56 29.24-30.01 0-20.52-11.28-31.28-36.92-31.28h-42.56v113.37h9.72v-104.93h-.04Z" fill="url(#Group 1__b)"/><path d="M930.102 280.95c11.4 0 23.25 2.1 35.55 6.3 12.3 4.2 23.1 9.6 32.4 16.2-3 15.3-5.85 29.1-8.55 41.4-2.4 12.3-4.65 23.55-6.75 33.75-2.1 9.9-4.2 19.05-6.3 27.45-1.8 8.1-3.6 15.75-5.4 22.95-7.2 27-14.7 51.45-22.5 73.35-7.5 21.6-15.6 41.1-24.3 58.5-8.4 17.4-17.4 32.85-27 46.35-9.3 13.5-19.35 25.35-30.15 35.55-10.5 9.9-21 18-31.5 24.3-10.5 6.3-20.25 10.35-29.25 12.15-12 0-23.1-1.35-33.3-4.05-10.2-2.7-19.05-6.45-26.55-11.25-7.2-4.5-12.9-10.05-17.1-16.65-3.9-6.3-5.85-13.35-5.85-21.15 0-8.4 2.1-18.9 6.3-31.5 4.2-12.9 10.65-28.05 19.35-45.45 3.6.3 7.8 1.2 12.6 2.7 4.8 1.5 9.6 3.3 14.4 5.4 4.8 2.1 9.15 4.5 13.05 7.2 3.9 2.4 6.75 4.8 8.55 7.2-9.6 9.9-17.4 20.85-23.4 32.85-6 11.7-9 21.9-9 30.6 0 5.1.9 9.6 2.7 13.5 2.1 4.2 5.55 7.95 10.35 11.25 18.3-6.9 36.15-19.8 53.55-38.7 17.4-18.6 32.85-41.85 46.35-69.75 8.1-16.5 15.45-35.4 22.05-56.7 6.6-21.3 12.15-42.6 16.65-63.9 4.8-21.6 8.4-42.15 10.8-61.65 2.7-19.8 4.05-36.45 4.05-49.95 0-2.1-.15-4.95-.45-8.55 0-3.9-.15-7.8-.45-11.7 0-4.2-.15-7.95-.45-11.25-.3-3.3-.45-5.55-.45-6.75ZM1177.48 421.8c9.9 0 17.55 2.7 22.95 8.1 5.7 5.4 8.55 12.9 8.55 22.5 0 2.4-.3 4.95-.9 7.65-.3 2.4-.75 4.5-1.35 6.3-3.9-.6-8.25-1.05-13.05-1.35-4.8-.6-10.5-.9-17.1-.9-12.9 0-25.95 1.2-39.15 3.6-13.2 2.1-25.8 3.9-37.8 5.4-6.9 15.9-13.2 31.35-18.9 46.35-5.7 14.7-10.65 28.2-14.85 40.5-3.9 12.3-7.05 22.95-9.45 31.95-2.1 9-3.3 15.75-3.6 20.25 24.3-5.1 48.75-9.45 73.35-13.05 24.9-3.6 51-6.3 78.3-8.1 3.3 5.1 6 10.65 8.1 16.65 2.4 6 3.6 12.45 3.6 19.35v5.85c0 2.1-.3 4.2-.9 6.3-8.4-.3-17.25-.6-26.55-.9h-36.45c-9.9 0-19.35.15-28.35.45-8.7.6-17.55 1.35-26.55 2.25-9 .9-18.6 2.1-28.8 3.6-9.9 1.5-21.15 3.3-33.75 5.4-13.8-5.4-27.15-18.6-40.054-39.6 5.1-10.8 12.154-27.15 21.154-49.05 9.3-22.2 21-51.75 35.1-88.65-13.5-4.2-22.35-11.7-26.55-22.5 1.5-1.5 5.85-3.3 13.05-5.4 7.2-2.4 16.05-4.8 26.55-7.2 4.5-11.7 8.25-21.9 11.25-30.6 3.3-8.7 6.15-16.8 8.55-24.3 2.4-7.8 4.5-15.3 6.3-22.5 2.1-7.5 4.05-15.6 5.85-24.3-10.5-.6-18.75-3.45-24.75-8.55-6-5.4-9-12.3-9-20.7 0-2.4.3-5.25.9-8.55.9-3.3 1.8-6.15 2.7-8.55 6 .9 11.7 1.5 17.1 1.8 5.7.3 13.05.45 22.05.45 18.9 0 36.6-.45 53.1-1.35 16.5-1.2 31.35-2.4 44.55-3.6 13.5-1.2 25.05-2.25 34.65-3.15 9.6-1.2 16.95-1.8 22.05-1.8 6.9 0 13.05 3.6 18.45 10.8 5.4 7.2 9.45 17.4 12.15 30.6-9.3-.9-16.95-1.5-22.95-1.8-5.7-.3-10.8-.45-15.3-.45-16.5 0-31.65.9-45.45 2.7-13.5 1.5-26.55 3.15-39.15 4.95-1.8 2.7-3.9 6.15-6.3 10.35-2.1 4.2-4.95 10.05-8.55 17.55-3.6 7.5-8.1 16.95-13.5 28.35-5.1 11.4-11.4 25.65-18.9 42.75 11.4-1.8 22.05-3.15 31.95-4.05 10.2-1.2 18.75-1.8 25.65-1.8Zm276.91 4.05c9.6 0 17.1 2.7 22.5 8.1 5.7 5.4 8.55 12.9 8.55 22.5 0 2.4-.15 4.95-.45 7.65-.3 2.4-.9 4.5-1.8 6.3-3.9-.6-8.25-1.05-13.05-1.35-4.8-.6-10.5-.9-17.1-.9-13.5 0-27 1.2-40.5 3.6-13.5 2.4-26.4 4.35-38.7 5.85-13.5 31.8-24.6 61.65-33.3 89.55-8.7 27.9-15.45 55.5-20.25 82.8-10.2-2.4-19.2-6.75-27-13.05-7.8-6.3-15.15-15.15-22.05-26.55 2.1-4.8 4.65-10.5 7.65-17.1 3-6.9 6.6-15.45 10.8-25.65 4.2-10.5 9.15-23.1 14.85-37.8 6-15 13.05-32.85 21.15-53.55-12.6-4.2-20.85-11.55-24.75-22.05 1.5-1.5 5.7-3.15 12.6-4.95 6.9-2.1 15.3-4.35 25.2-6.75 4.5-11.7 8.4-22.05 11.7-31.05 3.3-9.3 6.3-18 9-26.1 2.7-8.4 5.1-16.5 7.2-24.3 2.4-8.1 4.5-16.65 6.3-25.65h-2.25c-11.4 0-20.7-2.7-27.9-8.1-6.9-5.4-10.35-12.45-10.35-21.15 0-2.4.3-5.25.9-8.55.9-3.3 1.95-6.15 3.15-8.55 5.7.9 11.25 1.5 16.65 1.8 5.7.3 13.05.45 22.05.45 18.9 0 36.6-.45 53.1-1.35 16.5-1.2 31.35-2.4 44.55-3.6 13.5-1.2 25.05-2.25 34.65-3.15 9.6-1.2 16.95-1.8 22.05-1.8 6.9 0 13.05 3.6 18.45 10.8 5.4 7.2 9.6 17.4 12.6 30.6-9.6-.9-17.4-1.5-23.4-1.8-5.7-.3-10.8-.45-15.3-.45-15.3 0-29.4.75-42.3 2.25-12.6 1.2-24.6 2.7-36 4.5-1.8 2.7-3.9 6.15-6.3 10.35-2.1 4.2-4.95 10.2-8.55 18-3.6 7.5-8.25 17.4-13.95 29.7-5.4 12.3-12.3 27.9-20.7 46.8 11.7-1.8 22.8-3.3 33.3-4.5 10.8-1.2 19.8-1.8 27-1.8Zm247.86 0c9.6 0 17.1 2.7 22.5 8.1 5.7 5.4 8.55 12.9 8.55 22.5 0 2.4-.15 4.95-.45 7.65-.3 2.4-.9 4.5-1.8 6.3-3.9-.6-8.25-1.05-13.05-1.35-4.8-.6-10.5-.9-17.1-.9-13.5 0-27 1.2-40.5 3.6-13.5 2.4-26.4 4.35-38.7 5.85-13.5 31.8-24.6 61.65-33.3 89.55-8.7 27.9-15.45 55.5-20.25 82.8-10.2-2.4-19.2-6.75-27-13.05-7.8-6.3-15.15-15.15-22.05-26.55 2.1-4.8 4.65-10.5 7.65-17.1 3-6.9 6.6-15.45 10.8-25.65 4.2-10.5 9.15-23.1 14.85-37.8 6-15 13.05-32.85 21.15-53.55-12.6-4.2-20.85-11.55-24.75-22.05 1.5-1.5 5.7-3.15 12.6-4.95 6.9-2.1 15.3-4.35 25.2-6.75 4.5-11.7 8.4-22.05 11.7-31.05 3.3-9.3 6.3-18 9-26.1 2.7-8.4 5.1-16.5 7.2-24.3 2.4-8.1 4.5-16.65 6.3-25.65h-2.25c-11.4 0-20.7-2.7-27.9-8.1-6.9-5.4-10.35-12.45-10.35-21.15 0-2.4.3-5.25.9-8.55.9-3.3 1.95-6.15 3.15-8.55 5.7.9 11.25 1.5 16.65 1.8 5.7.3 13.05.45 22.05.45 18.9 0 36.6-.45 53.1-1.35 16.5-1.2 31.35-2.4 44.55-3.6 13.5-1.2 25.05-2.25 34.65-3.15 9.6-1.2 16.95-1.8 22.05-1.8 6.9 0 13.05 3.6 18.45 10.8 5.4 7.2 9.6 17.4 12.6 30.6-9.6-.9-17.4-1.5-23.4-1.8-5.7-.3-10.8-.45-15.3-.45-15.3 0-29.4.75-42.3 2.25-12.6 1.2-24.6 2.7-36 4.5-1.8 2.7-3.9 6.15-6.3 10.35-2.1 4.2-4.95 10.2-8.55 18-3.6 7.5-8.25 17.4-13.95 29.7-5.4 12.3-12.3 27.9-20.7 46.8 11.7-1.8 22.8-3.3 33.3-4.5 10.8-1.2 19.8-1.8 27-1.8Zm-808.251 598.1c0 16.5-4.2 32.25-12.6 47.25-8.1 15-19.2 28.2-33.3 39.6-13.8 11.1-30.15 19.95-49.05 26.55-18.6 6.6-38.4 9.9-59.4 9.9-7.5 0-13.5-.9-18-2.7-4.2-2.1-9-6-14.4-11.7-15 32.7-27.3 62.85-36.9 90.45-9.3 27.3-16.65 53.85-22.05 79.65-11.4-2.7-20.7-7.5-27.9-14.4-7.2-6.6-13.8-15-19.8-25.2 3-5.7 6.6-13.2 10.8-22.5 4.2-9.3 9.3-20.7 15.3-34.2 6-13.8 12.9-30.15 20.7-49.05 8.1-19.2 17.55-41.55 28.35-67.05 4.8-11.7 9-21.9 12.6-30.6 3.6-8.7 6.75-16.8 9.45-24.3 2.7-7.8 5.1-15.45 7.2-22.95 2.4-7.5 4.8-15.75 7.2-24.75-14.1 4.5-27.15 9.75-39.15 15.75-11.7 6-21.45 12.3-29.25 18.9-2.7-1.8-5.55-4.5-8.55-8.1-2.7-3.6-5.25-7.5-7.65-11.7-2.4-4.5-4.5-9-6.3-13.5-1.8-4.5-2.85-8.55-3.15-12.15 8.7-6 19.5-11.55 32.4-16.65 12.9-5.1 26.7-9.45 41.4-13.05 14.7-3.9 29.85-6.9 45.45-9 15.9-2.1 31.05-3.15 45.45-3.15 17.1 0 32.55 2.25 46.35 6.75 13.8 4.2 25.5 10.2 35.1 18 9.6 7.8 16.95 17.1 22.05 27.9 5.1 10.8 7.65 22.8 7.65 36Zm-80.1-54c-11.4 0-23.1.9-35.1 2.7l5.4 8.1c-3 3.9-6.75 9.75-11.25 17.55-4.5 7.8-9.45 17.25-14.85 28.35-5.4 10.8-11.4 22.95-18 36.45-6.3 13.5-13.05 27.75-20.25 42.75 23.4 0 44.7-2.1 63.9-6.3 19.2-4.5 35.55-10.5 49.05-18 13.8-7.8 24.45-16.8 31.95-27 7.8-10.2 11.7-21.15 11.7-32.85 0-15.6-5.25-28.05-15.75-37.35-10.5-9.6-26.1-14.4-46.8-14.4Zm75.87 270.9c0-10.8 1.65-24.75 4.95-41.85 3.6-17.4 8.1-36 13.5-55.8 5.7-20.1 12.15-40.5 19.35-61.2 7.2-21 14.55-40.65 22.05-58.95 7.5-18.3 14.85-34.35 22.05-48.15 7.2-13.8 13.65-23.7 19.35-29.7 3 .3 6.9 1.5 11.701 3.6 5.1 1.8 10.2 4.05 15.3 6.75 5.1 2.7 9.75 5.7 13.95 9 4.2 3 6.9 5.85 8.1 8.55-8.7 7.8-17.4 19.65-26.1 35.55-8.4 15.6-16.651 33.45-24.751 53.55-7.8 20.1-15.15 41.4-22.05 63.9-6.9 22.2-12.9 43.8-18 64.8s-9.15 40.5-12.15 58.5c-2.7 18-4.05 32.55-4.05 43.65 0 5.1.45 8.25 1.35 9.45-6.6-.3-11.4-1.5-14.4-3.6-3-1.8-5.4-3.9-7.2-6.3-1.5-2.1-3-4.35-4.5-6.75-1.2-2.1-3.15-3.75-5.85-4.95-2.1-.9-3.9-3-5.4-6.3-1.5-3.3-2.85-6.9-4.05-10.8-.9-4.2-1.65-8.4-2.25-12.6-.6-4.2-.9-7.65-.9-10.35Zm205.391-228.15c-1.2-4.2-2.25-9-3.15-14.4-.6-5.7-.9-13.95-.9-24.75 0-6.9.15-13.8.45-20.7.3-7.2 1.65-13.35 4.05-18.45 14.7 2.7 30.3 5.25 46.8 7.65 16.8 2.1 33.9 4.05 51.3 5.85 17.4 1.8 34.8 3.3 52.2 4.5 17.4.9 34.2 1.35 50.4 1.35 22.2 0 40.05-.9 53.55-2.7 4.8 6.6 7.8 14.4 9 23.4 1.2 9 1.8 17.4 1.8 25.2-34.5 14.1-67.2 32.1-98.1 54-30.9 21.6-58.95 44.25-84.15 67.95-25.2 23.7-46.95 47.1-65.25 70.2-18.3 23.1-31.95 43.2-40.95 60.3 5.4-.9 10.95-1.65 16.65-2.25 5.7-.9 11.85-1.65 18.45-2.25 6.6-.6 13.95-1.2 22.05-1.8 8.1-.6 17.4-1.2 27.9-1.8 14.7-.9 27.6-2.4 38.7-4.5 11.1-2.4 20.55-4.8 28.35-7.2 7.8-2.7 13.95-5.1 18.45-7.2 4.8-2.4 8.25-4.35 10.35-5.85 1.2 2.7 2.55 6.75 4.05 12.15 1.8 5.4 3.3 11.4 4.5 18 1.5 6.3 2.7 12.75 3.6 19.35.9 6.9 1.35 13.2 1.35 18.9 0 3-.15 4.95-.45 5.85 0 1.2-.15 2.4-.45 3.6-13.5-.9-27.15-1.95-40.95-3.15-13.5-1.2-27-1.8-40.5-1.8-18 0-36.75.9-56.25 2.7-19.2 2.1-37.8 5.1-55.8 9-17.7 4.2-34.05 9.45-49.05 15.75-14.7 6.3-26.547 13.8-35.547 22.5-2.4-7.8-4.95-14.55-7.65-20.25-2.4-5.4-3.6-12-3.6-19.8 0-7.8 1.5-14.1 4.5-18.9 3.3-4.5 7.65-8.25 13.05-11.25 17.997-25.8 38.397-51.3 61.197-76.5 23.1-25.5 47.7-50.1 73.8-73.8 26.1-23.7 53.1-46.2 81-67.5 27.9-21.6 55.8-41.25 83.7-58.95-18-.9-37.05-1.35-57.15-1.35-14.1 0-28.05.3-41.85.9-13.8.6-26.85 1.65-39.15 3.15-12.3 1.2-23.7 3.15-34.2 5.85-10.2 2.4-18.9 5.4-26.1 9Zm314.21 0c-1.2-4.2-2.25-9-3.15-14.4-.6-5.7-.9-13.95-.9-24.75 0-6.9.15-13.8.45-20.7.3-7.2 1.65-13.35 4.05-18.45 14.7 2.7 30.3 5.25 46.8 7.65 16.8 2.1 33.9 4.05 51.3 5.85 17.4 1.8 34.8 3.3 52.2 4.5 17.4.9 34.2 1.35 50.4 1.35 22.2 0 40.05-.9 53.55-2.7 4.8 6.6 7.8 14.4 9 23.4 1.2 9 1.8 17.4 1.8 25.2-34.5 14.1-67.2 32.1-98.1 54-30.9 21.6-58.95 44.25-84.15 67.95-25.2 23.7-46.95 47.1-65.25 70.2-18.3 23.1-31.95 43.2-40.95 60.3 5.4-.9 10.95-1.65 16.65-2.25 5.7-.9 11.85-1.65 18.45-2.25 6.6-.6 13.95-1.2 22.05-1.8 8.1-.6 17.4-1.2 27.9-1.8 14.7-.9 27.6-2.4 38.7-4.5 11.1-2.4 20.55-4.8 28.35-7.2 7.8-2.7 13.95-5.1 18.45-7.2 4.8-2.4 8.25-4.35 10.35-5.85 1.2 2.7 2.55 6.75 4.05 12.15 1.8 5.4 3.3 11.4 4.5 18 1.5 6.3 2.7 12.75 3.6 19.35.9 6.9 1.35 13.2 1.35 18.9 0 3-.15 4.95-.45 5.85 0 1.2-.15 2.4-.45 3.6-13.5-.9-27.15-1.95-40.95-3.15-13.5-1.2-27-1.8-40.5-1.8-18 0-36.75.9-56.25 2.7-19.2 2.1-37.8 5.1-55.8 9-17.7 4.2-34.05 9.45-49.05 15.75-14.7 6.3-26.55 13.8-35.55 22.5-2.4-7.8-4.95-14.55-7.65-20.25-2.4-5.4-3.6-12-3.6-19.8 0-7.8 1.5-14.1 4.5-18.9 3.3-4.5 7.65-8.25 13.05-11.25 18-25.8 38.4-51.3 61.2-76.5 23.1-25.5 47.7-50.1 73.8-73.8 26.1-23.7 53.1-46.2 81-67.5 27.9-21.6 55.8-41.25 83.7-58.95-18-.9-37.05-1.35-57.15-1.35-14.1 0-28.05.3-41.85.9-13.8.6-26.85 1.65-39.15 3.15-12.3 1.2-23.7 3.15-34.2 5.85-10.2 2.4-18.9 5.4-26.1 9Zm257.51 288c-14.4-4.2-24.45-8.4-30.15-12.6-5.4-4.2-8.1-9.45-8.1-15.75 0-4.8 1.35-11.55 4.05-20.25 2.7-8.7 6.6-18.9 11.7-30.6 5.4-12 11.7-25.2 18.9-39.6 7.5-14.4 15.9-29.85 25.2-46.35-7.8-.3-14.85-.45-21.15-.45-6-.3-10.95-.45-14.85-.45 1.8-4.5 6.9-8.4 15.3-11.7 8.4-3.3 19.5-6.15 33.3-8.55 11.7-19.5 24.15-38.1 37.35-55.8 13.5-17.7 27-33.9 40.5-48.6 13.5-15 27-28.05 40.5-39.15 13.5-11.4 26.4-20.4 38.7-27 .3-2.1.45-3.9.45-5.4.3-1.5.45-2.55.45-3.15 4.2 0 9.75 1.05 16.65 3.15 7.2 2.1 14.1 4.65 20.7 7.65 6.9 3 12.9 6.15 18 9.45 5.4 3 8.4 5.55 9 7.65-9.9 17.4-19.65 43.5-29.25 78.3-9.6 34.5-17.55 75.9-23.85 124.2-1.5 12-2.85 25.65-4.05 40.95-.9 15.3-1.35 32.4-1.35 51.3v20.25c0 6.9.3 14.1.9 21.6-.6.3-1.2.45-1.8.45h-3.6c-4.2 0-9.15-.75-14.85-2.25-5.4-1.2-10.8-2.85-16.2-4.95-5.1-1.8-9.6-3.9-13.5-6.3-3.6-2.4-5.85-4.5-6.75-6.3-.3-3.9-.45-7.8-.45-11.7v-11.7c0-18.6.6-37.5 1.8-56.7 1.5-19.2 3.9-39 7.2-59.4-4.2-.3-9.75-.6-16.65-.9-6.9-.6-14.7-1.05-23.4-1.35-8.4-.3-17.55-.6-27.45-.9-9.6-.6-19.05-1.05-28.35-1.35-7.2 13.5-13.95 27-20.25 40.5-6.3 13.2-11.7 26.55-16.2 40.05-5.1 14.4-9.3 28.8-12.6 43.2-3 14.4-4.95 27.9-5.85 40.5Zm173.7-270.45c1.2-4.2 2.55-9.9 4.05-17.1 1.8-7.5 3.45-15.3 4.95-23.4-7.5 2.7-15.9 7.65-25.2 14.85-9 7.2-18.45 16.2-28.35 27-9.6 10.5-19.5 22.5-29.7 36-9.9 13.2-19.5 27.3-28.8 42.3 25.2-2.1 53.85-3.45 85.95-4.05 2.4-12.6 4.95-25.05 7.65-37.35 3-12.6 6.15-25.35 9.45-38.25Z" fill="url(#Group 1__c)"/><circle cx="1968" cy="1341.5" r="106" stroke="url(#Group 1__d)" stroke-width="8"/></g><defs><radialGradient id="Group 1__b" cx="0" cy="0" r="1" gradientUnits="userSpaceOnUse" gradientTransform="matrix(-43.51275 1876.9957 -1719.03815 -39.85096 1259.505 154.505)"><stop offset=".286" stop-color="#CEC82C"/><stop offset="1" stop-color="#DD052B"/></radialGradient><radialGradient id="Group 1__c" cx="0" cy="0" r="1" gradientUnits="userSpaceOnUse" gradientTransform="rotate(91.543 351.744 855.096) scale(1411.51 3610.17)"><stop offset=".016" stop-color="#CAC329"/><stop offset="1" stop-color="#DD052B"/></radialGradient><radialGradient id="Group 1__d" cx="0" cy="0" r="1" gradientUnits="userSpaceOnUse" gradientTransform="matrix(0 490.5 -490.5 0 1968 1066.5)"><stop offset=".5" stop-color="#CEC82C"/><stop offset="1" stop-color="#DD052B"/></radialGradient><clipPath id="Group 1__a"><path fill="#fff" d="M0 0h2500v2115H0z"/></clipPath></defs></svg>